<svg xmlns="http://www.w3.org/2000/svg" width="300" height="400" viewBox="0 0 300 400">
  <rect width="300" height="400" fill="#0c1222"/>
  <circle cx="200" cy="80" r="35" fill="#e2e8f0" opacity="0.15"/>
  <circle cx="200" cy="80" r="28" fill="#cbd5e1" opacity="0.1"/>
  <circle cx="203" cy="77" r="22" fill="#f1f5f9" opacity="0.08"/>
  <rect x="80" y="200" width="40" height="80" rx="2" fill="#1e293b" opacity="0.6"/>
  <rect x="125" y="180" width="35" height="100" rx="2" fill="#1e293b" opacity="0.5"/>
  <rect x="165" y="190" width="45" height="90" rx="2" fill="#1e293b" opacity="0.6"/>
  <polygon points="95,200 105,185 115,200" fill="#334155" opacity="0.5"/>
  <polygon points="140,180 148,165 156,180" fill="#334155" opacity="0.4"/>
  <polygon points="182,190 192,170 202,190" fill="#334155" opacity="0.5"/>
  <circle cx="50" cy="60" r="1.5" fill="#e2e8f0" opacity="0.4"/>
  <circle cx="120" cy="40" r="1" fill="#e2e8f0" opacity="0.3"/>
  <circle cx="80" cy="150" r="1.5" fill="#e2e8f0" opacity="0.3"/>
  <circle cx="250" cy="150" r="1" fill="#e2e8f0" opacity="0.4"/>
  <circle cx="30" cy="250" r="1" fill="#e2e8f0" opacity="0.2"/>
  <text x="150" y="330" text-anchor="middle" font-family="sans-serif" font-size="22" font-weight="bold" fill="#cbd5e1">Moonlit</text>
  <text x="150" y="358" text-anchor="middle" font-family="sans-serif" font-size="20" fill="#94a3b8">Academy</text>
  <text x="150" y="390" text-anchor="middle" font-family="sans-serif" font-size="10" fill="#475569">NAKAMURA YUKI</text>
</svg>
